<?xml version="1.0" encoding="UTF-8" standalone="no"?>
<!-- Created with Inkscape (http://www.inkscape.org/) -->

<svg
   xmlns:dc="http://purl.org/dc/elements/1.1/"
   xmlns:cc="http://creativecommons.org/ns#"
   xmlns:rdf="http://www.w3.org/1999/02/22-rdf-syntax-ns#"
   xmlns:svg="http://www.w3.org/2000/svg"
   xmlns="http://www.w3.org/2000/svg"
   xmlns:sodipodi="http://sodipodi.sourceforge.net/DTD/sodipodi-0.dtd"
   xmlns:inkscape="http://www.inkscape.org/namespaces/inkscape"
   version="1.1"
   id="svg10"
   width="588.47241"
   height="222.61417"
   viewBox="0 0 588.47241 222.61417"
   sodipodi:docname="FIFA_WorldCup_logo.svg"
   inkscape:version="0.92.4 (5da689c313, 2019-01-14)">
  <metadata
     id="metadata16">
    <rdf:RDF>
      <cc:Work
         rdf:about="">
        <dc:format>image/svg+xml</dc:format>
        <dc:type
           rdf:resource="http://purl.org/dc/dcmitype/StillImage" />
        <dc:title />
      </cc:Work>
    </rdf:RDF>
  </metadata>
  <defs
     id="defs14" />
  <sodipodi:namedview
     pagecolor="#ffffff"
     bordercolor="#666666"
     borderopacity="1"
     objecttolerance="10"
     gridtolerance="10"
     guidetolerance="10"
     inkscape:pageopacity="0"
     inkscape:pageshadow="2"
     inkscape:window-width="1920"
     inkscape:window-height="1017"
     id="namedview12"
     showgrid="false"
     inkscape:zoom="1.4953972"
     inkscape:cx="308.53329"
     inkscape:cy="46.433256"
     inkscape:window-x="-8"
     inkscape:window-y="-8"
     inkscape:window-maximized="1"
     inkscape:current-layer="svg10" />
  <g
     id="g840"
     transform="matrix(1.2864798,0,0,1.2864798,-88.867455,-45.191746)"
     style="fill:#00316b;fill-opacity:1">
    <path
       id="path6318"
       style="fill:#00316b;fill-opacity:1;fill-rule:nonzero;stroke:none;stroke-width:6.86187887"
       d="m 476.12309,155.94721 h 3.1633 c 1.08418,0 2.07915,-0.0962 3.01238,-0.29505 0.91262,-0.19888 1.74979,-0.54209 2.42225,-1.09103 0.68619,-0.48719 1.22828,-1.13222 1.62627,-1.96936 0.39799,-0.84403 0.59699,-1.83212 0.59699,-3.01924 0,-1.23513 -0.19889,-2.21637 -0.59699,-3.01235 -0.39799,-0.78913 -0.94008,-1.43412 -1.62627,-1.9282 -0.67246,-0.49405 -1.50963,-0.83714 -2.42225,-1.03614 -0.93323,-0.19888 -1.9282,-0.29505 -3.01238,-0.29505 h -3.1633 z m -12.39942,-21.39534 h 14.77362 c 7.1432,0 12.37195,1.18712 15.75486,3.65738 3.36918,2.4703 5.07093,6.32667 5.07093,11.56228 0,4.69351 -1.63312,8.34404 -4.86505,11.02018 -3.21823,2.61436 -7.76079,3.95243 -13.54537,3.95243 h -4.78957 v 16.20778 h -12.39942 v -46.40005"
       inkscape:connector-curvature="0" />
    <path
       id="path6322"
       style="fill:#00316b;fill-opacity:1;fill-rule:nonzero;stroke:none;stroke-width:6.86187887"
       d="m 455.09831,163.30998 c 0,3.21138 -0.51466,5.97673 -1.50275,8.29604 -0.94008,2.27815 -2.3262,4.15142 -4.13085,5.68849 -1.82526,1.53018 -3.94558,2.66925 -6.46392,3.35544 -2.50457,0.74109 -5.26992,1.08418 -8.28227,1.08418 -2.98492,0 -5.75026,-0.34313 -8.296,-1.08418 -2.44971,-0.68619 -4.62492,-1.82526 -6.42961,-3.35544 -1.77722,-1.53707 -3.1633,-3.41034 -4.14457,-5.68849 -0.98809,-2.31931 -1.46156,-5.08466 -1.46156,-8.29604 V 134.55187 H 426.745 v 26.727 c 0,1.53707 0.14425,3.01924 0.39114,4.35042 0.21965,1.33807 0.64503,2.57324 1.23513,3.60937 0.59699,1.03614 1.4067,1.83212 2.42225,2.42225 1.03614,0.5901 2.34678,0.94008 3.925,0.94008 1.60569,0 2.93688,-0.35005 3.95243,-0.94008 1.00871,-0.59013 1.80469,-1.38611 2.42225,-2.42225 0.59014,-1.03613 1.01556,-2.2713 1.2626,-3.60937 0.24697,-1.33118 0.35005,-2.81335 0.35005,-4.35042 v -26.727 h 12.39257 v 28.75811"
       inkscape:connector-curvature="0" />
    <path
       id="path6326"
       style="fill:#00316b;fill-opacity:1;fill-rule:nonzero;stroke:none;stroke-width:6.86187887"
       d="m 407.3945,179.90887 c -1.79784,0.44603 -3.69858,0.84402 -5.82574,1.23516 -2.14778,0.39799 -4.82392,0.5901 -7.93232,0.5901 -3.11529,0 -6.27178,-0.3911 -9.46254,-1.22828 -3.16334,-0.84399 -6.00416,-2.2301 -8.54989,-4.05537 -2.53893,-1.88016 -4.61804,-4.34357 -6.2512,-7.36277 -1.59881,-3.06039 -2.44283,-6.76582 -2.44283,-11.16428 0,-4.00048 0.66561,-7.50691 1.9831,-10.6222 1.3518,-3.01235 3.21134,-5.53069 5.55127,-7.5618 2.37421,-1.96933 5.21503,-3.50639 8.50184,-4.49452 3.23197,-0.98813 6.76583,-1.48217 10.60162,-1.48217 2.36736,0 4.68667,0.19889 6.96482,0.69304 2.24383,0.44603 4.53568,0.98812 6.7864,1.67432 l -1.00871,10.03206 c -1.97621,-1.08419 -3.95247,-1.92133 -5.92868,-2.47026 -1.96933,-0.4872 -4.0279,-0.78913 -6.1551,-0.78913 -2.22326,0 -4.2269,0.39798 -6.00412,1.13907 -1.77726,0.74108 -3.28001,1.77722 -4.54257,3.10844 -1.27633,1.33807 -2.2713,2.9163 -2.91629,4.79646 -0.71366,1.83211 -1.00871,3.80148 -1.00871,5.97669 0,2.27126 0.34313,4.30241 1.11161,6.12763 0.80971,1.82527 1.85273,3.35549 3.21138,4.63866 1.35865,1.24198 3.01235,2.23011 4.87193,2.9163 1.92132,0.64499 4.02106,0.99497 6.27174,0.99497 2.02426,0 4.05537,-0.25389 6.02474,-0.74797 2.0311,-0.446 3.87695,-1.03613 5.55812,-1.67428 l 0.59013,9.73013"
       inkscape:connector-curvature="0" />
    <path
       id="path6330"
       style="fill:#00316b;fill-opacity:1;fill-rule:nonzero;stroke:none;stroke-width:6.86187887"
       d="m 314.26511,171.75697 h 4.78957 c 4.6455,0 8.22741,-1.13219 10.72513,-3.5064 2.44284,-2.32619 3.70539,-5.83262 3.70539,-10.52614 0,-4.64547 -1.26255,-8.1519 -3.78086,-10.51926 -2.51831,-2.32615 -6.07963,-3.51327 -10.64966,-3.51327 h -4.78957 z m -12.37884,-37.2051 h 16.92141 c 4.0279,0 7.73332,0.35005 11.09565,1.04302 3.38292,0.68619 6.24432,1.96933 8.66653,3.69854 2.42225,1.73606 4.30241,4.10342 5.68852,7.0746 1.30376,2.95746 2.02423,6.71093 2.02423,11.16429 0,4.34357 -0.72047,8.00095 -2.10658,10.96526 -1.35865,2.96434 -3.25255,5.38659 -5.68164,7.25986 -2.44284,1.83215 -5.35225,3.16334 -8.71458,3.95247 -3.38291,0.84399 -7.06775,1.24198 -10.97213,1.24198 h -16.92141 v -46.40002"
       inkscape:connector-curvature="0" />
    <path
       id="path6334"
       style="fill:#00316b;fill-opacity:1;fill-rule:nonzero;stroke:none;stroke-width:6.86187887"
       d="M 263.56953,134.55187 H 275.9758 V 171.757 h 19.11719 v 9.19492 h -31.52346 v -46.40005"
       inkscape:connector-curvature="0" />
    <path
       id="path6338"
       style="fill:#00316b;fill-opacity:1;fill-rule:nonzero;stroke:none;stroke-width:6.86187887"
       d="m 229.87772,153.8269 h 3.31428 c 0.98124,0 1.9968,-0.0481 3.08783,-0.10309 1.08418,-0.0962 2.06542,-0.29505 2.90944,-0.64503 0.88519,-0.34313 1.60569,-0.88519 2.17521,-1.57823 0.59014,-0.74108 0.86461,-1.72921 0.86461,-3.06039 0,-1.08418 -0.27465,-1.92821 -0.76167,-2.62125 -0.50093,-0.74108 -1.18712,-1.23513 -1.9831,-1.57822 -0.85772,-0.35005 -1.7978,-0.59699 -2.88883,-0.74109 -1.09103,-0.10308 -2.22325,-0.19888 -3.40349,-0.19888 h -3.31428 z m -12.30336,-19.27499 h 22.03348 c 2.05173,0 3.9799,0.19888 5.83259,0.69304 1.79784,0.446 3.41038,1.18708 4.76903,2.12716 1.3518,0.98813 2.46341,2.22326 3.23192,3.70543 0.76855,1.43412 1.16654,3.16333 1.16654,5.13955 0,3.10844 -0.74793,5.67475 -2.18209,7.65785 -1.50275,2.02426 -3.72601,3.35545 -6.73836,4.04852 v 0.15081 c 0.98124,0.24696 1.78411,0.68619 2.37421,1.28317 0.59013,0.54209 1.11164,1.28318 1.55079,2.12716 0.44604,0.88519 0.83714,1.87332 1.24198,3.01239 0.38429,1.13219 0.83718,2.42225 1.4067,3.80148 l 4.54256,12.65331 h -12.89346 l -2.69672,-8.3509 c -0.61071,-2.03114 -1.2077,-3.65741 -1.72921,-4.94055 -0.5901,-1.28318 -1.18023,-2.3262 -1.7978,-3.06728 -0.67246,-0.74109 -1.38611,-1.28318 -2.22325,-1.57823 -0.79598,-0.30197 -1.83212,-0.39799 -2.97119,-0.39799 h -2.61436 v 18.33495 h -12.30336 v -46.40002"
       inkscape:connector-curvature="0" />
    <path
       id="path6342"
       style="fill:#00316b;fill-opacity:1;fill-rule:nonzero;stroke:none;stroke-width:6.86187887"
       d="m 175.87469,157.72443 c 0,1.92821 0.19233,3.76032 0.59014,5.58559 0.39799,1.77722 0.98813,3.35544 1.82527,4.74156 0.84398,1.38608 1.93505,2.47714 3.26623,3.31428 1.33123,0.78225 2.9163,1.23513 4.83762,1.23513 1.83215,0 3.41038,-0.45288 4.74845,-1.23513 1.33118,-0.83714 2.41536,-1.9282 3.25939,-3.31428 0.83714,-1.38612 1.43412,-2.96434 1.83211,-4.74156 0.43915,-1.82527 0.63815,-3.65738 0.63815,-5.58559 0,-1.97621 -0.19889,-3.84949 -0.63815,-5.6816 -0.39799,-1.77726 -0.99497,-3.36233 -1.83211,-4.74156 -0.84403,-1.33807 -1.92821,-2.42225 -3.25939,-3.21138 -1.33807,-0.7891 -2.9163,-1.18709 -4.74845,-1.18709 -1.92132,0 -3.50639,0.39799 -4.83762,1.18709 -1.33118,0.78913 -2.42225,1.87331 -3.26623,3.21138 -0.83714,1.37923 -1.42728,2.9643 -1.82527,4.74156 -0.39799,1.83211 -0.59014,3.70539 -0.59014,5.6816 z m -12.7974,0 c 0,-3.70539 0.49408,-7.06087 1.48217,-10.03206 1.03617,-2.96434 2.4703,-5.47576 4.44651,-7.55491 1.92817,-2.07231 4.35042,-3.65738 7.26671,-4.74845 2.90945,-1.08414 6.27178,-1.62623 10.12127,-1.62623 3.76032,0 7.1158,0.54209 10.0321,1.62623 2.91629,1.09107 5.33166,2.67614 7.26671,4.74845 1.97621,2.07915 3.45839,4.59057 4.43963,7.55491 0.99497,2.97119 1.48905,6.32667 1.48905,10.03206 0,3.70543 -0.49408,7.01971 -1.48905,9.97721 -0.98124,2.97118 -2.46342,5.5375 -4.43963,7.60981 -2.02426,2.07915 -4.39846,3.66422 -7.31476,4.79645 -2.92314,1.08418 -6.22373,1.62627 -9.98405,1.62627 -3.84949,0 -7.21182,-0.54209 -10.08007,-1.62627 -2.86828,-1.13223 -5.3317,-2.7173 -7.30791,-4.79645 -1.97621,-2.07231 -3.41034,-4.63863 -4.44651,-7.60981 -0.98809,-2.9575 -1.48217,-6.27178 -1.48217,-9.97721"
       inkscape:connector-curvature="0" />
    <path
       id="path6346"
       style="fill:#00316b;fill-opacity:1;fill-rule:nonzero;stroke:none;stroke-width:6.86187887"
       d="m 93.161653,134.55187 h 12.653307 l 5.97669,35.62691 h 0.10308 l 6.2649,-35.62691 h 15.7137 l 6.52563,35.62691 h 0.0962 l 6.07963,-35.62691 h 12.05632 l -10.382,46.40005 h -15.9539 l -6.52562,-35.62687 h -0.15081 l -6.12083,35.62687 H 103.4892 L 93.162103,134.55187"
       inkscape:connector-curvature="0" />
  </g>
  <g
     id="g858"
     transform="matrix(0.76798789,0,0,0.76798789,66.266362,17.188739)"
     style="fill:#00316b;fill-opacity:1">
    <path
       inkscape:connector-curvature="0"
       style="fill:#00316b;fill-opacity:1;fill-rule:evenodd;stroke:none;stroke-width:3.78497362"
       id="path2882"
       d="m 171.22077,25.113679 v 80.695641 h 25.48801 V 76.672589 h 17.7099 l 6.88486,-17.63798 h -24.59476 v -16.37379 h 29.93536 l 6.52908,-17.54714 h -61.95245" />
    <path
       inkscape:connector-curvature="0"
       style="fill:#00316b;fill-opacity:1;fill-rule:evenodd;stroke:none;stroke-width:3.78497362"
       id="path2886"
       d="m 240.96648,25.113679 -0.0454,80.695641 h 25.19279 V 25.113679 h -25.14739" />
    <path
       inkscape:connector-curvature="0"
       style="fill:#00316b;fill-opacity:1;fill-rule:evenodd;stroke:none;stroke-width:3.78497362"
       id="path2890"
       d="m 364.97736,79.450759 9.70467,-33.59921 10.05289,33.59921 z m 23.19432,-54.33708 h -26.15796 l -29.00425,80.703211 h 24.34874 l 3.13395,-10.851521 h 28.38352 l 3.28157,10.851521 h 25.09438 L 388.17168,25.113679" />
    <path
       inkscape:connector-curvature="0"
       style="fill:#00316b;fill-opacity:1;fill-rule:evenodd;stroke:none;stroke-width:3.78497362"
       id="path2894"
       d="m 283.50958,25.113679 v 80.695641 h 25.47287 V 76.672589 h 17.69097 l 6.93407,-17.63798 h -24.62504 v -16.37379 h 29.94671 l 6.57829,-17.54714 h -61.99787" />
  </g>
</svg>
